<svg width="142" height="42" viewBox="0 0 142 42" fill="none" xmlns="http://www.w3.org/2000/svg">
<path d="M104.528 16.1064H99.4673V16.1077H99.4605L98.693 18.8811L98.5946 19.2844C97.8581 17.2223 96.1841 15.8754 93.9382 15.8754C90.2477 15.8754 86.4169 19.5088 85.3837 23.9919C84.3504 28.475 86.5046 32.1084 90.1951 32.1084C92.1618 32.1084 94.1648 31.0748 95.766 29.433C95.8752 29.3442 96.056 29.1511 96.3392 28.813L95.0956 34.1836C94.4238 36.6816 92.5934 38.5805 90.3759 38.5805C89.978 38.5805 89.6043 38.527 89.2563 38.4252C89.0432 38.3521 88.8354 38.2699 88.6385 38.1746C88.6345 38.172 88.6291 38.1707 88.625 38.1681C88.5104 38.112 88.3998 38.0507 88.2919 37.9867C88.2716 37.9736 88.2514 37.9619 88.2312 37.9489C87.9223 37.7596 87.6404 37.5377 87.3881 37.2898C87.3584 37.2598 87.3274 37.231 87.2977 37.1997C87.2262 37.1266 87.1574 37.0509 87.0927 36.9726C87.0603 36.9335 87.0293 36.893 86.9983 36.8539C86.8931 36.7194 86.796 36.5811 86.7042 36.4349C86.6719 36.3827 86.6368 36.3318 86.6071 36.2783C86.5653 36.2039 86.5275 36.1282 86.4884 36.0512C86.4533 35.982 86.421 35.9129 86.3886 35.8411C86.3562 35.7693 86.3252 35.6962 86.2969 35.6218C86.2578 35.5213 86.224 35.4182 86.1917 35.3138C86.1782 35.2694 86.1606 35.2251 86.1471 35.1794H84.8212C84.8212 35.182 84.8225 35.1846 84.8239 35.1885H84.8212C85.3486 37.7805 87.5014 39.6233 90.5323 39.7708C90.558 39.7708 90.5809 39.7682 90.6079 39.7682C90.6672 39.7682 90.7266 39.7656 90.7859 39.7656C90.8331 39.7669 90.8776 39.7708 90.9249 39.7708C90.9518 39.7708 90.9788 39.7695 91.0058 39.7695L91.0274 39.7617C94.9566 39.6246 99.2083 37.4973 101.238 29.4512L104.528 16.1064ZM97.9538 21.892C97.9538 22.2078 97.935 22.5328 97.8972 22.8656C97.8958 22.8734 97.8958 22.8813 97.8945 22.8891C97.877 23.0444 97.8527 23.201 97.827 23.3589C97.8216 23.3863 97.8176 23.4151 97.8122 23.4425C97.7839 23.5991 97.7529 23.757 97.7164 23.9162C97.7164 23.9162 97.7164 23.9162 97.7164 23.9175V23.9188C97.6746 24.1016 97.6261 24.2817 97.5748 24.4605C97.5667 24.4866 97.56 24.5127 97.5519 24.5388C97.5006 24.7097 97.4453 24.8794 97.386 25.0465C97.3752 25.0752 97.3657 25.1039 97.3549 25.1326C97.2929 25.301 97.2281 25.4693 97.158 25.6338C97.1499 25.652 97.1418 25.669 97.1337 25.6873C97.0595 25.8595 96.9813 26.0305 96.899 26.1976C95.6257 28.7791 93.3839 30.7054 91.1245 31.0422V31.0409C91.0759 31.0474 91.026 31.0552 90.9761 31.0552C90.5121 31.0552 90.1951 30.7537 90.1749 30.3426C90.1722 30.323 90.1735 30.3009 90.1735 30.28C90.1735 30.2748 90.1735 30.2695 90.1735 30.2643C90.1735 30.2434 90.1722 30.2239 90.1749 30.2017C90.4271 28.2401 90.8156 26.1232 91.3444 23.9162C91.8664 21.7354 92.4518 19.7333 93.1289 17.7926C93.1289 17.7913 93.1478 17.7339 93.1478 17.7339C93.3447 17.2157 93.9477 16.7955 94.4724 16.8177C94.5614 16.8216 94.6707 16.8412 94.7759 16.8686C96.7372 17.3763 97.9552 19.3392 97.9538 21.892ZM83.4049 28.4358H82.1842C81.8402 29.121 81.2952 29.724 80.6491 30.1743C80.4347 30.3152 80.1865 30.4027 79.9396 30.4027C79.3798 30.4027 79.0494 29.9759 79.187 29.4212C79.2193 29.2803 79.2584 29.1263 79.3016 28.9579L81.4733 20.9458C81.476 20.934 81.4773 20.9236 81.48 20.9118V20.9105C81.5111 20.7826 81.5367 20.6547 81.5569 20.5294C81.561 20.5033 81.5664 20.4772 81.5704 20.4511C81.5893 20.3298 81.6028 20.2084 81.6136 20.0883C81.6149 20.0674 81.6163 20.0452 81.6176 20.0244C81.6257 19.9121 81.6284 19.8012 81.6284 19.6916C81.6284 19.6772 81.6284 19.6628 81.6284 19.6485C81.6257 19.531 81.619 19.4162 81.6082 19.3026C81.6055 19.2778 81.6041 19.2543 81.6014 19.2295C81.588 19.116 81.5718 19.0051 81.5515 18.8954C81.5488 18.8837 81.5461 18.8719 81.5434 18.8602C81.5219 18.7571 81.4976 18.6566 81.4679 18.5574C81.4625 18.5391 81.4571 18.5209 81.4517 18.5026C81.4193 18.3995 81.3843 18.2977 81.3438 18.1985C81.3357 18.1789 81.3276 18.1607 81.3195 18.1411C81.2345 17.9375 81.132 17.7456 81.0147 17.5629C81.0039 17.5459 80.9931 17.529 80.981 17.512C80.9216 17.4233 80.8596 17.3384 80.7935 17.2562C80.784 17.2445 80.7732 17.2327 80.7624 17.2197C80.6977 17.1414 80.6302 17.0657 80.5588 16.9926C80.5507 16.9847 80.5439 16.9756 80.5358 16.9678C80.4603 16.8921 80.3807 16.819 80.2971 16.7498C80.2822 16.7368 80.2661 16.7237 80.2499 16.7107C80.1649 16.6415 80.0786 16.5749 79.9868 16.5136C79.9801 16.5097 79.9747 16.5058 79.9679 16.5019C79.8789 16.4418 79.7872 16.387 79.6928 16.3335C79.6779 16.3257 79.6631 16.3165 79.6469 16.3074C79.5498 16.2539 79.4486 16.2056 79.3448 16.1599C79.3272 16.1521 79.3084 16.1442 79.2908 16.1364C78.7445 15.9067 78.12 15.7788 77.4334 15.7788C74.7977 15.7788 72.6665 17.5773 71.0222 20.1222C71.0195 20.1249 71.0168 20.0896 71.0168 20.0896L72.2551 15.8297C73.8805 14.3928 74.884 12.3803 74.884 9.98409C74.884 6.20577 71.1639 2.896 65.6753 2.896C60.4538 2.896 55.9796 6.60645 55.9796 9.77397C55.9796 9.7818 55.9809 9.79093 55.9809 9.79876C55.9809 11.2305 57.2597 12.3516 58.9309 12.3516C60.7006 12.3516 62.2694 11.0921 62.4339 9.53905C62.5985 7.98596 61.2968 6.65213 59.5271 6.65213C59.4853 6.65213 59.4435 6.65604 59.4017 6.65735C60.9394 4.85237 63.4011 3.78478 66.0759 3.78478C70.3963 3.78478 73.9722 6.74087 73.9196 10.1198C73.8589 14.0247 70.5312 16.7002 66.6087 17.0774L66.5116 17.4689L62.9856 31.5747H68.2732L69.7421 25.5424C70.2304 23.5952 70.6675 22.1282 71.6724 20.7774C72.939 19.0481 74.184 17.6308 75.835 17.1401C75.9321 17.114 76.0306 17.0983 76.1291 17.0983C76.6902 17.0983 77.0261 17.5251 76.8966 18.0797C76.8669 18.2207 76.8305 18.3747 76.79 18.5431L74.6696 26.888C74.6048 27.149 74.5387 27.4087 74.4767 27.6632C74.4726 27.6789 74.4713 27.6945 74.4672 27.7102C74.4672 27.7115 74.4659 27.7141 74.4659 27.7154C74.4457 27.7885 74.4281 27.8629 74.4119 27.9347C74.4065 27.9608 74.4025 27.9856 74.3971 28.0117C74.3877 28.06 74.3769 28.1083 74.3701 28.1566C74.3647 28.1866 74.362 28.2179 74.3566 28.2479C74.3499 28.291 74.3431 28.334 74.3391 28.3758C74.3351 28.4084 74.3337 28.4398 74.331 28.4711C74.327 28.5115 74.3229 28.552 74.3202 28.5912C74.3175 28.6238 74.3175 28.6551 74.3162 28.6877C74.3148 28.7256 74.3135 28.7647 74.3121 28.8026C74.3121 28.8352 74.3135 28.8678 74.3135 28.8992C74.3148 28.9357 74.3148 28.9736 74.3162 29.0101C74.3175 29.0427 74.3202 29.0741 74.3229 29.1067C74.3256 29.1432 74.3283 29.1785 74.331 29.2137C74.3351 29.2463 74.3391 29.2777 74.3432 29.309C74.3472 29.3429 74.3526 29.3781 74.358 29.4121C74.3634 29.4434 74.3688 29.4747 74.3755 29.506C74.3823 29.54 74.3877 29.5726 74.3958 29.6065C74.4025 29.6379 74.4106 29.6679 74.4173 29.6992C74.4254 29.7318 74.4335 29.7645 74.443 29.7958C74.4511 29.8258 74.4605 29.8558 74.4699 29.8858C74.4794 29.9172 74.4902 29.9485 74.4996 29.9798C74.5104 30.0098 74.5212 30.0385 74.532 30.0686C74.5428 30.0986 74.5549 30.1286 74.5671 30.1586C74.5792 30.1873 74.5913 30.216 74.6048 30.2447C74.6183 30.2735 74.6305 30.3035 74.6453 30.3309C74.6588 30.3596 74.6736 30.387 74.6885 30.4144C74.7033 30.4418 74.7181 30.4692 74.733 30.4966C74.7492 30.524 74.764 30.5514 74.7802 30.5775C74.7964 30.6036 74.8126 30.6298 74.8287 30.6559C74.8463 30.682 74.8638 30.7081 74.8814 30.7342C74.8989 30.759 74.9164 30.7838 74.9353 30.8086C74.9542 30.8347 74.9731 30.8595 74.9933 30.8842C75.0122 30.9077 75.0311 30.9312 75.0513 30.9547C75.0715 30.9795 75.0931 31.0043 75.1134 31.0278C75.1336 31.05 75.1538 31.0722 75.1754 31.0944C75.197 31.1179 75.2199 31.1414 75.2429 31.1635C75.2644 31.1844 75.286 31.2053 75.3076 31.2262C75.3319 31.2484 75.3562 31.2706 75.3804 31.2928C75.4034 31.3123 75.4263 31.3319 75.4492 31.3502C75.4749 31.3711 75.5005 31.3919 75.5261 31.4128C75.549 31.4311 75.5733 31.4494 75.5976 31.4663C75.6246 31.4859 75.6516 31.5055 75.6799 31.5251C75.7042 31.542 75.7298 31.5577 75.7541 31.5747C75.7837 31.5929 75.8121 31.6125 75.8418 31.6295C75.8674 31.6451 75.893 31.6595 75.9186 31.6738C75.9497 31.6908 75.9793 31.7091 76.0117 31.7247C76.0387 31.7378 76.0657 31.7508 76.0913 31.7639C76.1237 31.7796 76.156 31.7952 76.1884 31.8109C76.2154 31.8226 76.2424 31.8344 76.2707 31.8448C76.3044 31.8592 76.3395 31.8735 76.3746 31.8879C76.4015 31.8983 76.4299 31.9075 76.4568 31.9179C76.4933 31.931 76.5297 31.944 76.5661 31.9558C76.5931 31.9649 76.62 31.9727 76.6484 31.9805C76.6875 31.9923 76.7253 32.004 76.7657 32.0145C76.7914 32.021 76.8183 32.0262 76.844 32.0328C76.8858 32.0432 76.9276 32.0536 76.9708 32.0628C76.9937 32.068 77.0166 32.0706 77.0396 32.0758C77.0868 32.085 77.1353 32.0941 77.1839 32.1019C77.1866 32.1019 77.1879 32.1019 77.1906 32.1032C77.3269 32.1241 77.4685 32.1385 77.6128 32.145C77.6155 32.145 77.6182 32.145 77.6209 32.1463C77.7005 32.1502 77.7814 32.1528 77.8637 32.1528C80.1474 32.1593 82.4769 30.5475 83.4049 28.4358ZM60.4457 16.1077H55.0826L54.8317 17.2014L53.611 22.5302L52.5939 26.9676C52.5413 27.2012 52.4887 27.4348 52.4374 27.6632C52.4347 27.6789 52.4334 27.6945 52.4293 27.7102C52.4293 27.7115 52.428 27.7141 52.428 27.7154C52.4105 27.7885 52.3943 27.8629 52.3794 27.9347C52.374 27.9608 52.3713 27.9856 52.3659 28.0117C52.3579 28.06 52.3484 28.1083 52.3417 28.1566C52.3376 28.1866 52.3349 28.2166 52.3309 28.2479C52.3255 28.291 52.3201 28.334 52.316 28.3758C52.3133 28.4084 52.312 28.4398 52.3093 28.4711C52.3066 28.5115 52.3039 28.552 52.3026 28.5912C52.3012 28.6238 52.3012 28.6551 52.3012 28.6877C52.3012 28.7256 52.2999 28.7647 52.2999 28.8026C52.2999 28.8352 52.3026 28.8678 52.3039 28.8992C52.3053 28.937 52.3066 28.9736 52.3093 29.0101C52.312 29.0427 52.3147 29.0741 52.3187 29.1067C52.3228 29.1432 52.3255 29.1785 52.3295 29.2137C52.3336 29.2463 52.339 29.2777 52.343 29.309C52.3484 29.3429 52.3538 29.3781 52.3592 29.4121C52.3646 29.4434 52.3713 29.4747 52.3781 29.506C52.3848 29.54 52.3929 29.5726 52.401 29.6065C52.4091 29.6379 52.4172 29.6679 52.4253 29.6992C52.4347 29.7318 52.4428 29.7645 52.4536 29.7958C52.4631 29.8258 52.4725 29.8558 52.4833 29.8858C52.4941 29.9172 52.5049 29.9485 52.5157 29.9798C52.5265 30.0098 52.5386 30.0385 52.5507 30.0686C52.5629 30.0986 52.575 30.1286 52.5885 30.1586C52.6007 30.1873 52.6155 30.216 52.6276 30.2447C52.6411 30.2735 52.656 30.3022 52.6694 30.3309C52.6843 30.3596 52.6991 30.387 52.714 30.4144C52.7288 30.4418 52.745 30.4692 52.7612 30.4966C52.7774 30.524 52.7935 30.5514 52.8111 30.5775C52.8273 30.6036 52.8448 30.6298 52.8623 30.6559C52.8799 30.682 52.8988 30.7081 52.9176 30.7342C52.9352 30.759 52.9541 30.7838 52.9729 30.8086C52.9918 30.8347 53.0121 30.8595 53.0323 30.8842C53.0512 30.9077 53.0714 30.9312 53.0916 30.9547C53.1132 30.9795 53.1335 31.0043 53.1564 31.0278C53.1766 31.05 53.1982 31.0722 53.2198 31.0944C53.2427 31.1179 53.2656 31.1414 53.2899 31.1635C53.3115 31.1844 53.3344 31.2053 53.356 31.2262C53.3803 31.2484 53.4046 31.2706 53.4302 31.2928C53.4531 31.3123 53.4761 31.3319 53.5004 31.3502C53.526 31.3711 53.553 31.3919 53.5799 31.4128C53.6042 31.4311 53.6285 31.4494 53.6528 31.4663C53.6811 31.4859 53.7081 31.5055 53.7364 31.5251C53.7607 31.542 53.7877 31.5577 53.8133 31.5747C53.843 31.5929 53.8713 31.6125 53.9023 31.6295C53.9279 31.6451 53.9549 31.6595 53.9806 31.6738C54.0116 31.6908 54.0426 31.7091 54.075 31.7247C54.102 31.7378 54.1289 31.7508 54.1559 31.7639C54.1883 31.7796 54.2206 31.7952 54.2544 31.8109C54.2813 31.8226 54.3097 31.8344 54.3367 31.8461C54.3717 31.8605 54.4054 31.8748 54.4405 31.8892C54.4688 31.8996 54.4958 31.9088 54.5241 31.9192C54.5606 31.9323 54.597 31.9453 54.6348 31.9571C54.6617 31.9662 54.6901 31.974 54.717 31.9819C54.7562 31.9936 54.7953 32.0053 54.8344 32.0158C54.86 32.0223 54.887 32.0275 54.9126 32.0341C54.9558 32.0445 54.9976 32.0549 55.0408 32.0641C55.0637 32.0693 55.0866 32.0719 55.1096 32.0771C55.1568 32.0863 55.2053 32.0954 55.2539 32.1032C55.2566 32.1032 55.2579 32.1032 55.2606 32.1045C55.3982 32.1254 55.5399 32.1398 55.6842 32.1463C55.6869 32.1463 55.6896 32.1463 55.6923 32.1476C55.7719 32.1515 55.8528 32.1541 55.9351 32.1541C58.2187 32.1541 60.5078 30.5423 61.3845 28.4306H60.1638C59.836 29.1158 59.3059 29.7188 58.6719 30.169C58.4615 30.31 58.2147 30.3974 57.9678 30.3974C57.408 30.3974 57.0668 29.9707 57.1909 29.416C57.2205 29.275 57.2543 29.121 57.2934 28.9527L60.4457 16.1077ZM53.6582 6.28017C53.7661 5.84034 53.4855 5.48404 53.0309 5.48404H34.7874L34.5203 6.65604H43.976C43.9773 6.65604 43.9786 6.65604 43.98 6.65604C44.5411 6.65604 44.8878 7.09587 44.7543 7.63879C44.7178 7.78497 44.6517 7.92461 44.5614 8.0486C44.5587 8.05252 44.5587 8.05513 44.5573 8.05904L32.2785 25.3519C31.9008 25.8948 31.6176 26.4938 31.4638 27.1242C30.8609 29.5804 32.4309 31.5734 34.9709 31.5734H49.3L49.5697 30.4027L38.1825 30.4014C38.1812 30.4014 38.1798 30.4014 38.1785 30.4014C37.6174 30.4014 37.2707 29.9615 37.4042 29.4186C37.4407 29.2724 37.5081 29.1328 37.5971 29.0088C37.5998 29.0049 37.5998 29.0023 37.6012 28.9984L53.5125 6.59731C53.5799 6.49943 53.6298 6.39371 53.6582 6.28017ZM33.7528 11.4328C33.8392 11.083 33.6153 10.7985 33.2538 10.7985H18.7264L18.458 11.9692H25.8781C26.3246 11.9692 26.6011 12.3189 26.4946 12.7522C26.4662 12.8684 26.4123 12.9793 26.3408 13.0785C26.3381 13.0824 26.3381 13.0837 26.3367 13.0864L16.7287 26.6191C16.4279 27.0511 16.2026 27.5288 16.0799 28.03C15.5997 29.9863 16.8501 31.5734 18.8721 31.5734H30.1001L30.3699 30.4053L21.5995 30.404C21.5981 30.404 21.5981 30.404 21.5954 30.404C21.149 30.404 20.8724 30.0542 20.979 29.6209C21.0073 29.5047 21.0613 29.3938 21.1328 29.2946C21.1355 29.292 21.1355 29.2894 21.1368 29.2868L33.6382 11.6847C33.6894 11.6077 33.7299 11.5228 33.7528 11.4328ZM16.4576 16.5789C16.521 16.3178 16.3551 16.1077 16.0853 16.1077H5.32533L5.07713 17.1988C5.07713 17.1988 10.4376 17.2001 10.4389 17.2001C10.7721 17.2001 10.9771 17.4611 10.8975 17.7822C10.8759 17.8696 10.8368 17.9518 10.7829 18.0249C10.7815 18.0275 10.7815 18.0288 10.7802 18.0314L3.78221 27.8851C3.5583 28.2075 3.39104 28.5624 3.29932 28.9357C2.94186 30.3922 3.87259 31.5734 5.37793 31.5734H14.3196L14.5894 30.404H7.61841C7.61706 30.404 7.61706 30.404 7.61571 30.404C7.28254 30.404 7.07751 30.1429 7.1571 29.8219C7.17868 29.7357 7.21779 29.6522 7.27175 29.5791C7.2731 29.5765 7.2731 29.5752 7.27445 29.5726L16.3713 16.7681C16.4104 16.7094 16.4414 16.6454 16.4576 16.5789Z" fill="#D95C40"/>
<path d="M111.259 18.3225L110.717 18.0759C110.279 17.8749 109.944 17.529 109.944 16.9809C109.944 16.2487 110.566 15.7632 111.578 15.7632C111.967 15.7632 112.462 15.8167 112.98 15.9707L112.534 17.0879H112.518L111.896 16.0164C111.849 15.9394 111.824 15.9002 111.712 15.9002H111.601C111.25 15.9002 110.954 16.0777 110.954 16.4392C110.954 16.7786 111.217 16.9404 111.687 17.1414L112.197 17.3567C112.69 17.5642 113.082 17.8266 113.082 18.4204C113.082 19.2531 112.356 19.7007 111.297 19.7007C110.842 19.7007 110.285 19.6159 109.831 19.4619L110.269 18.2664H110.285L110.923 19.4619C110.956 19.5232 111.003 19.5624 111.091 19.5624H111.274C111.737 19.5624 112.023 19.3314 112.023 18.9999C112.024 18.6853 111.777 18.5535 111.259 18.3225Z" fill="#D95C40"/>
<path d="M115.163 15.8244V19.0859C115.163 19.1864 115.163 19.2099 115.235 19.2712L115.624 19.6262V19.6419H113.393V19.6262L113.783 19.2712C113.855 19.2099 113.855 19.1864 113.855 19.0859V16.4183C113.855 16.3178 113.847 16.2956 113.783 16.2251L113.393 15.8401V15.8244H115.163ZM113.848 14.8299C113.848 14.4593 114.143 14.2283 114.486 14.2283C114.845 14.2283 115.131 14.4593 115.131 14.8299C115.131 15.1771 114.843 15.4003 114.486 15.4003C114.143 15.4016 113.848 15.1771 113.848 14.8299Z" fill="#D95C40"/>
<path d="M122.595 19.086C122.595 19.1865 122.603 19.21 122.675 19.2713L123.065 19.6263V19.642H120.834V19.6263L121.209 19.2713C121.272 19.21 121.288 19.1787 121.288 19.0938C121.288 18.9712 121.312 17.9375 121.312 17.5669C121.312 16.8725 121.2 16.4027 120.699 16.4027C120.444 16.4027 120.228 16.5332 120.069 16.7342C120.116 16.9273 120.14 17.1427 120.14 17.3894C120.14 17.867 120.124 18.4765 120.116 19.0847C120.116 19.1852 120.124 19.2087 120.187 19.27L120.585 19.625V19.6407H118.346V19.625L118.728 19.27C118.791 19.2087 118.799 19.1774 118.799 19.0925C118.799 18.9764 118.824 17.9362 118.824 17.5656C118.824 16.8634 118.712 16.4014 118.218 16.4014C117.963 16.4014 117.772 16.5397 117.629 16.7407V19.0847C117.629 19.1852 117.629 19.2087 117.7 19.27L118.09 19.625V19.6407H115.859V19.625L116.249 19.27C116.32 19.2087 116.32 19.1852 116.32 19.0847V16.4184C116.32 16.3179 116.312 16.2957 116.249 16.2252L115.859 15.8402V15.8245H117.627V16.6415C117.827 16.1025 118.249 15.7632 118.894 15.7632C119.483 15.7632 119.881 16.079 120.048 16.6729C120.232 16.1639 120.709 15.7632 121.378 15.7632C122.168 15.7632 122.614 16.3257 122.614 17.3894C122.619 17.8984 122.603 18.4765 122.595 19.086Z" fill="#D95C40"/>
<path d="M123.535 16.4184C123.535 16.3179 123.527 16.2957 123.464 16.2252L123.074 15.8402V15.8245H124.834V16.6415C125.105 16.032 125.536 15.7632 126.07 15.7632C126.955 15.7632 127.575 16.4875 127.575 17.6517C127.575 18.8929 126.849 19.702 125.886 19.702C125.313 19.702 124.979 19.4789 124.834 19.116V20.797C124.834 20.8975 124.842 20.921 124.954 20.9902L125.544 21.383V21.3987H123.074V21.383L123.464 21.028C123.527 20.9667 123.535 20.9432 123.535 20.8427V16.4184ZM124.834 16.742V19.0625C124.946 19.1787 125.136 19.2557 125.352 19.2557C125.758 19.2557 126.197 18.8393 126.197 17.7143C126.197 16.7733 125.893 16.3805 125.432 16.3805C125.184 16.3805 124.977 16.5345 124.834 16.742Z" fill="#D95C40"/>
<path d="M129.55 19.086C129.55 19.1865 129.558 19.21 129.63 19.2713L130.019 19.6263V19.642H127.788V19.6263L128.178 19.2713C128.242 19.21 128.25 19.1865 128.25 19.086V14.7843C128.25 14.6838 128.242 14.6538 128.178 14.5912L127.788 14.2362V14.2205L129.549 14.0195V19.086H129.55Z" fill="#D95C40"/>
<path d="M132.306 19.4944C132.122 19.9107 131.884 20.3727 131.621 20.7734C131.294 21.2667 130.991 21.4599 130.513 21.4599C130.393 21.4599 130.266 21.4364 130.138 21.3829L130.434 20.0334H130.45L131.239 20.7891C131.278 20.8282 131.302 20.8504 131.335 20.8504C131.374 20.8504 131.406 20.8269 131.455 20.7577C131.558 20.6194 131.677 20.4027 131.757 20.2252L131.804 20.1013L130.322 16.4626C130.282 16.3621 130.242 16.2851 130.202 16.2081L129.987 15.8374V15.8218H132.051V15.8374L131.732 16.2616C131.692 16.3151 131.677 16.3464 131.716 16.4391L132.522 18.5978L133.166 17.0786C133.222 16.9481 133.23 16.9168 133.166 16.7928L132.681 15.8374V15.8218H134.043V15.8374L133.525 16.7014C133.429 16.8554 133.39 16.9481 133.326 17.1021L132.306 19.4944Z" fill="#D95C40"/>
<path d="M111.259 24.6199L110.717 24.3732C110.279 24.1722 109.944 23.8264 109.944 23.2782C109.944 22.5461 110.566 22.0605 111.578 22.0605C111.967 22.0605 112.462 22.1141 112.98 22.2681L112.534 23.3852H112.518L111.896 22.3137C111.849 22.2367 111.824 22.1976 111.712 22.1976H111.601C111.25 22.1976 110.954 22.3751 110.954 22.7366C110.954 23.0759 111.217 23.2378 111.687 23.4388L112.197 23.6541C112.69 23.8616 113.082 24.1239 113.082 24.7178C113.082 25.5504 112.356 25.9981 111.297 25.9981C110.842 25.9981 110.285 25.9133 109.831 25.7593L110.269 24.5638H110.285L110.923 25.7593C110.956 25.8206 111.003 25.8597 111.091 25.8597H111.274C111.737 25.8597 112.023 25.6287 112.023 25.2972C112.024 24.9827 111.777 24.8522 111.259 24.6199Z" fill="#D95C40"/>
<path d="M120.119 25.3832C120.119 25.4837 120.127 25.5072 120.198 25.5685L120.588 25.9235V25.9392H118.357V25.9235L118.732 25.5685C118.795 25.5072 118.812 25.4759 118.812 25.391C118.812 25.2684 118.836 24.2347 118.836 23.8641C118.836 23.1697 118.724 22.6999 118.222 22.6999C117.967 22.6999 117.751 22.8304 117.592 23.0314C117.639 23.2246 117.664 23.4399 117.664 23.6866C117.664 24.1642 117.647 24.7737 117.639 25.3819C117.639 25.4824 117.647 25.5059 117.711 25.5672L118.109 25.9222V25.9379H115.87V25.9222L116.251 25.5672C116.315 25.5059 116.323 25.4746 116.323 25.3897C116.323 25.2736 116.347 24.2334 116.347 23.8628C116.347 23.1606 116.235 22.6986 115.742 22.6986C115.487 22.6986 115.295 22.8369 115.152 23.0379V25.3819C115.152 25.4824 115.152 25.5059 115.224 25.5672L115.613 25.9222V25.9379H113.382V25.9222L113.772 25.5672C113.844 25.5059 113.844 25.4824 113.844 25.3819V22.7142C113.844 22.6138 113.836 22.5916 113.772 22.5211L113.382 22.1361V22.1204H115.151V22.9374C115.35 22.3984 115.773 22.0591 116.417 22.0591C117.007 22.0591 117.405 22.3749 117.572 22.9687C117.755 22.4598 118.233 22.0591 118.902 22.0591C119.691 22.0591 120.137 22.6216 120.137 23.6853C120.142 24.1969 120.125 24.775 120.119 25.3832Z" fill="#D95C40"/>
<path d="M124.229 23.8954L124.181 24.9904C124.165 25.2905 124.237 25.438 124.397 25.438C124.501 25.438 124.573 25.3923 124.62 25.2997H124.636C124.636 25.3689 124.62 25.485 124.573 25.5777C124.444 25.8322 124.175 26.0018 123.792 26.0018C123.337 26.0018 122.947 25.7395 122.923 25.254C122.764 25.7017 122.358 26.0018 121.84 26.0018C121.258 26.0018 120.757 25.6247 120.757 24.9147C120.757 24.1512 121.442 23.7505 122.095 23.7505C122.437 23.7505 122.725 23.8118 122.939 23.958L122.955 23.1332V23.0953C122.955 22.5628 122.788 22.2092 122.374 22.2092C122.215 22.2092 122.207 22.217 122.158 22.3018L121.513 23.4582H121.497L120.995 22.3553C121.53 22.17 122.095 22.063 122.605 22.063C123.139 22.063 123.553 22.1557 123.84 22.418C124.095 22.649 124.238 23.0275 124.238 23.62C124.237 23.6957 124.229 23.8719 124.229 23.8954ZM121.998 24.7815C121.998 25.2057 122.197 25.4367 122.467 25.4367C122.642 25.4367 122.818 25.3206 122.922 25.1666V25.1587L122.938 24.0337C122.842 24.0024 122.746 23.988 122.642 23.988C122.228 23.988 121.998 24.3352 121.998 24.7815Z" fill="#D95C40"/>
<path d="M127.749 23.5261H127.733L127.103 22.8018C127.063 22.7561 127.015 22.7248 126.96 22.7626C126.825 22.8553 126.738 22.9936 126.617 23.2103V25.2919C126.617 25.3768 126.626 25.4146 126.738 25.4851L127.519 25.9249V25.9406H124.849V25.9249L125.239 25.5699C125.31 25.5086 125.31 25.4851 125.31 25.3846V22.7169C125.31 22.6164 125.302 22.5943 125.239 22.5238L124.849 22.1388V22.1231H126.617V23.1098C126.752 22.5629 127.088 22.0618 127.645 22.0618C127.884 22.0618 128.068 22.1623 128.188 22.3163L127.749 23.5261Z" fill="#D95C40"/>
<path d="M130.849 22.2771H129.868V24.8521C129.868 25.1993 130.027 25.399 130.291 25.399C130.498 25.399 130.665 25.2685 130.753 25.1132L130.769 25.121C130.69 25.553 130.363 25.9993 129.607 25.9993C128.913 25.9993 128.571 25.6365 128.571 24.9435V22.2758H128.132V22.1218H128.491C128.619 22.1218 128.658 22.1218 128.738 22.037L129.853 20.8271H129.87V22.1218H130.85V22.2771H130.849Z" fill="#D95C40"/>
<path d="M132.25 23.8575V23.8732C132.25 24.8755 132.776 25.284 133.39 25.284C133.868 25.284 134.338 25.083 134.601 24.5753H134.618C134.41 25.5463 133.789 26.0018 132.857 26.0018C131.854 26.0018 130.906 25.4158 130.906 24.0598C130.906 22.6333 131.846 22.063 132.906 22.063C133.75 22.063 134.651 22.448 134.651 23.6892C134.651 23.7127 134.651 23.7662 134.643 23.8588H132.25V23.8575ZM132.25 23.7179H133.421C133.429 23.6174 133.429 23.5169 133.429 23.4869C133.429 22.4767 133.215 22.2066 132.887 22.2066C132.489 22.2079 132.267 22.6007 132.25 23.7179Z" fill="#D95C40"/>
<path d="M137.81 23.5261H137.794L137.164 22.8018C137.124 22.7561 137.077 22.7248 137.021 22.7626C136.887 22.8553 136.799 22.9936 136.679 23.2103V25.2919C136.679 25.3768 136.687 25.4146 136.799 25.4851L137.58 25.9249V25.9406H134.91V25.9249L135.3 25.5699C135.372 25.5086 135.372 25.4851 135.372 25.3846V22.7169C135.372 22.6164 135.364 22.5943 135.3 22.5238L134.91 22.1388V22.1231H136.679V23.1098C136.814 22.5629 137.15 22.0618 137.707 22.0618C137.945 22.0618 138.129 22.1623 138.249 22.3163L137.81 23.5261Z" fill="#D95C40"/>
<path d="M111.259 30.9182L110.717 30.6716C110.279 30.4706 109.944 30.1247 109.944 29.5766C109.944 28.8444 110.566 28.3589 111.578 28.3589C111.967 28.3589 112.462 28.4124 112.98 28.5664L112.534 29.6849H112.518L111.896 28.6134C111.849 28.5364 111.824 28.4972 111.712 28.4972H111.601C111.25 28.4972 110.954 28.6747 110.954 29.0362C110.954 29.3756 111.217 29.5374 111.687 29.7384L112.197 29.9537C112.69 30.1613 113.082 30.4236 113.082 31.0174C113.082 31.8501 112.356 32.2977 111.297 32.2977C110.842 32.2977 110.285 32.2129 109.831 32.0589L110.269 30.8634H110.285L110.923 32.0589C110.956 32.1202 111.003 32.1594 111.091 32.1594H111.274C111.737 32.1594 112.023 31.9284 112.023 31.5969C112.024 31.2797 111.777 31.1492 111.259 30.9182Z" fill="#D95C40"/>
<path d="M116.038 28.5743H115.059V31.1493C115.059 31.4964 115.218 31.6961 115.481 31.6961C115.689 31.6961 115.856 31.5656 115.944 31.4103L115.96 31.4181C115.88 31.8501 115.554 32.2965 114.797 32.2965C114.104 32.2965 113.761 31.9336 113.761 31.2406V28.5729H113.323V28.4189H113.682C113.81 28.4189 113.849 28.4189 113.929 28.3341L115.044 27.1243H115.059V28.4189H116.04V28.5743H116.038Z" fill="#D95C40"/>
<path d="M119.599 30.1926L119.552 31.2876C119.536 31.5877 119.608 31.7352 119.768 31.7352C119.872 31.7352 119.943 31.6895 119.991 31.5969H120.007C120.007 31.6661 119.991 31.7822 119.943 31.8749C119.815 32.1294 119.545 32.299 119.162 32.299C118.708 32.299 118.318 32.0367 118.294 31.5512C118.135 31.9989 117.729 32.299 117.211 32.299C116.629 32.299 116.127 31.9219 116.127 31.2119C116.127 30.4484 116.813 30.0477 117.466 30.0477C117.808 30.0477 118.095 30.1091 118.31 30.2565L118.326 29.4317V29.3925C118.326 28.8601 118.159 28.5064 117.745 28.5064C117.586 28.5064 117.577 28.5142 117.529 28.599L116.884 29.7554H116.868L116.366 28.6525C116.9 28.4672 117.466 28.3589 117.975 28.3589C118.51 28.3589 118.924 28.4516 119.211 28.7139C119.466 28.9449 119.609 29.3234 119.609 29.9159C119.608 29.9929 119.599 30.1704 119.599 30.1926ZM117.37 31.0801C117.37 31.5042 117.569 31.7352 117.839 31.7352C118.015 31.7352 118.19 31.6191 118.294 31.4651V31.4572L118.31 30.3322C118.214 30.3009 118.118 30.2865 118.015 30.2865C117.6 30.2852 117.37 30.6324 117.37 31.0801Z" fill="#D95C40"/>
<path d="M122.197 32.089C122.014 32.5054 121.775 32.9674 121.512 33.368C121.186 33.8614 120.882 34.0545 120.405 34.0545C120.285 34.0545 120.158 34.031 120.03 33.9775L120.325 32.628H120.341L121.13 33.3837C121.17 33.4229 121.194 33.445 121.226 33.445C121.265 33.445 121.298 33.4216 121.346 33.3524C121.45 33.214 121.569 32.9974 121.648 32.8199L121.696 32.6959L120.213 29.0572C120.174 28.9567 120.134 28.8797 120.093 28.8027L119.879 28.4334V28.4177H121.942V28.4334L121.624 28.8575C121.584 28.9111 121.569 28.9424 121.608 29.035L122.413 31.1937L123.058 29.6746C123.113 29.544 123.121 29.5127 123.058 29.3887L122.572 28.4334V28.4177H123.935V28.4334L123.417 29.2974C123.321 29.4514 123.282 29.544 123.217 29.698L122.197 32.089Z" fill="#D95C40"/>
<path d="M125.288 30.9182L124.745 30.6716C124.307 30.4706 123.972 30.1247 123.972 29.5766C123.972 28.8444 124.594 28.3589 125.606 28.3589C125.996 28.3589 126.491 28.4124 127.009 28.5664L126.562 29.6849H126.546L125.924 28.6134C125.877 28.5364 125.853 28.4972 125.741 28.4972H125.629C125.278 28.4972 124.983 28.6747 124.983 29.0362C124.983 29.3756 125.246 29.5374 125.715 29.7384L126.225 29.9537C126.719 30.1613 127.11 30.4236 127.11 31.0174C127.11 31.8501 126.384 32.2977 125.325 32.2977C124.871 32.2977 124.314 32.2129 123.859 32.0589L124.298 30.8634H124.314L124.95 32.0589C124.983 32.1202 125.03 32.1594 125.118 32.1594H125.301C125.764 32.1594 126.05 31.9284 126.05 31.5969C126.052 31.2797 125.806 31.1492 125.288 30.9182Z" fill="#D95C40"/>
<path d="M128.228 31.1023C128.587 31.1023 128.873 31.349 128.873 31.7118C128.873 32.0589 128.586 32.2978 128.228 32.2978C127.885 32.2978 127.59 32.0589 127.59 31.7118C127.59 31.349 127.885 31.1023 128.228 31.1023Z" fill="#D95C40"/>
</svg>
